<?xml version="1.0" encoding="UTF-8"?>
<svg xmlns="http://www.w3.org/2000/svg" xmlns:xlink="http://www.w3.org/1999/xlink" width="347px" height="347px" viewBox="0 0 347 347" version="1.1">
<g id="surface1">
<path d="m247.66 0c3.6055-0.41406 6.8906-0.57031 10.504-0.54297 1.5742-0.003906 1.5742-0.003906 3.1836-0.011719 2.2344-0.003906 4.4648 0.003907 6.6992 0.023438 3.375 0.019531 6.75 0 10.125-0.027344 14.309-0.019531 28.91 0.09375 40.246 10.086 3.6562 5.0859 5.6328 8.8281 5.0547 15.188-1.0273 5.5312-2.7227 10.488-4.8125 15.68-0.40234 1.0156-0.80078 2.0312-1.2109 3.0742-1.3398 3.4023-2.6953 6.8008-4.0469 10.195-0.97266 2.4609-1.9414 4.9219-2.9141 7.3867-2.1133 5.3633-4.2344 10.723-6.3594 16.082-3.5 8.8438-6.9805 17.699-10.453 26.551-1.2188 3.1133-2.4414 6.2227-3.6602 9.332-0.61719 1.5664-1.2305 3.1328-1.8633 4.7461-3.1914 8.1328-6.3906 16.27-9.5898 24.402-6.3398 16.133-12.68 32.266-19.02 48.402-2.4727 6.2969-4.9453 12.594-7.4219 18.887-5.7812 14.719-11.562 29.434-17.332 44.156-2.6875 6.8594-5.3789 13.719-8.0703 20.574-1.2656 3.2344-2.5312 6.4648-3.7969 9.6953-6.207 15.848-12.445 31.684-18.824 47.461-0.50781 1.2695-1.0156 2.5391-1.5391 3.8477-0.47266 1.1602-0.94531 2.3203-1.4297 3.5156-0.41016 1.0156-0.82031 2.0312-1.2461 3.0781-1.2109 2.4961-1.2109 2.4961-3.9336 5.2188-3.4688 0.27344-6.7852 0.37891-10.254 0.36328-1.0234 0-2.0469 0.003907-3.1055 0.007813-2.1719 0-4.3477-0.003906-6.5234-0.015625-3.2891-0.015625-6.5781 0-9.8711 0.015625-27.727 0.027344-27.727 0.027344-37.594-7.7969-5.7344-5.8672-8.0469-12.215-7.957-20.406 1.0352-7.7969 4.5273-15.004 7.4922-22.234 0.75-1.8594 1.4922-3.7188 2.2383-5.582 1.5859-3.9648 3.1875-7.9297 4.7969-11.887 2.5508-6.2773 5.0781-12.562 7.5977-18.848 2.9961-7.457 5.9922-14.914 9-22.363 6.3516-15.738 12.613-31.516 18.848-47.301 2.8516-7.2188 5.7109-14.434 8.5703-21.648 1.1758-2.957 2.3477-5.918 3.5195-8.8789 11.566-29.188 23.137-58.367 34.73-87.543 2.2852-5.75 4.5703-11.5 6.8516-17.254 2.9141-7.3398 5.8359-14.68 8.7578-22.016 1.0547-2.6523 2.1133-5.3047 3.1641-7.9609 1.4297-3.5977 2.8633-7.1953 4.2969-10.789 0.62109-1.5703 0.62109-1.5703 1.2539-3.1719 1.6914-4.2188 3.3672-7.8945 5.8984-11.691z"/>
<path d="m185.4-0.13281c0.89062 0 1.7852 0.003906 2.7031 0.003906 2.8164 0.007812 5.6289 0.027344 8.4414 0.042968 1.9258 0.0078125 3.8477 0.015625 5.7695 0.019531 4.6836 0.015625 9.3672 0.039062 14.047 0.066406-0.73438 9.2266-4.0469 17.148-7.4688 25.691-0.61719 1.5664-1.2344 3.1328-1.8711 4.7461-1.6641 4.2109-3.3359 8.418-5.0117 12.621-1.7461 4.3867-3.4805 8.7773-5.2188 13.168-3.8945 9.8398-7.8086 19.672-11.727 29.504-0.45312 1.1367-0.90625 2.2695-1.3711 3.4414-2.8867 7.2461-5.7812 14.492-8.6875 21.73-6.6523 16.562-13.223 33.16-19.793 49.754-0.60547 1.5312-1.2109 3.0586-1.8359 4.6328-3.7617 9.5039-7.5234 19.008-11.289 28.508-5.1562 13.031-10.316 26.059-15.477 39.086-2.3555 5.9453-4.707 11.887-7.0586 17.828l-4.8633 12.246c-2.1055 5.293-4.1836 10.598-6.25 15.906-0.75 1.9062-0.75 1.9062-1.5117 3.8516-0.9375 2.3945-1.8711 4.793-2.793 7.1953-3.1328 7.9492-3.1328 7.9492-6.1602 9.4609-6.2578 0.33984-12.531 0.25391-18.797 0.25781-1.7227 0.015625-3.4414 0.03125-5.2148 0.050782-31.082 0.046874-31.082 0.046874-41.305-7.1094-6.7461-7.0547-10.039-12.648-9.9062-22.504 0.82031-7.2188 3.6562-13.926 6.1641-20.703 0.65234-1.8047 1.3086-3.6094 1.9609-5.4141 16.188-44.422 33.57-88.438 51.066-132.36 2.7188-6.8281 5.4023-13.668 8.0742-20.516 1.9453-4.9766 3.8984-9.9492 5.8594-14.922 0.92969-2.3633 1.8516-4.7305 2.7695-7.1016 10.562-27.258 24.438-48.465 51.039-62.25 11.711-4.9961 22.984-6.9922 35.715-6.9375z"/>
</g>
</svg>
