<?xml version="1.0" encoding="utf-8"?>
<!-- Generator: Adobe Illustrator 19.2.1, SVG Export Plug-In . SVG Version: 6.00 Build 0)  -->
<svg version="1.1" id="Layer_1" xmlns="http://www.w3.org/2000/svg" xmlns:xlink="http://www.w3.org/1999/xlink" x="0px" y="0px"
	 viewBox="0 0 120 32" style="enable-background:new 0 0 120 32;" xml:space="preserve">
<style type="text/css">
	.st0{fill:#FFFFFF;}
</style>
<g>
	<path class="st0" d="M16.8,13.6c-1.7,0-5,2.3-5,2.3s-1.2-1.3-0.3-2.3c0.9-0.9,9-6.2,9.4-9.2c0.2-1.6-1-2.2-3.2-2.2
		c-5.8,0-14.9,10-15.1,12C2.4,16,6.2,12.5,8.4,10c0.7-0.8,0.4-1.6,0.7-1.6c1.2,0,2.2,1.3,2.2,2.5c0,1.7-5.5,8.3-5.5,10.3
		c0,1.1-1.8,0.6-2.1-1.5c-0.2-1.4,1.2-3.8,2.6-5.9c-1.2,1.1-2.7,2.1-3.7,2.1c-1,0-1.6-0.9-1.5-1.7C1.5,11.6,9.7,0.5,17.6,0.5
		c3.4,0,5.6,2.3,5.2,5.1c-0.3,2.4-4.1,5.6-5.2,6.4c0.8,0.3,3.7,1.6,3.3,5.3c0,0.3-0.1,0.6-0.2,0.9c0.6-0.5,1.1-1.1,1.7-1.7
		c0.4-0.5,0.7-0.9,1-1.3c0.3-0.5,1-0.3,0.5,0.5c-0.1,0.2-0.5,0.7-1,1.3c-0.7,0.9-1.6,1.8-2.6,2.5c-1.7,4.1-6.4,9.4-10.1,9.5h0
		c0,0-0.1,0-0.1,0c0,0-0.1,0-0.1,0c-1.5-0.1-2-0.9-1.8-2.1c0.3-2.2,6.6-5.3,9.4-7C17.6,19.9,21,13.6,16.8,13.6z M8.4,10
		c0.2-0.2,0.3-0.4,0.4-0.5C8.9,9.4,8.4,9.9,8.4,10z M16.3,21.7c-2.5,1.5-7,4.1-7.2,5.5c0,0.3,0,0.5,0.3,0.5
		C10.9,27.7,14.5,24.6,16.3,21.7z"/>
	<path class="st0" d="M29.6,14.4c-2.6,0-8.4,7.5-6.8,7.5c0.5,0,5.1-5,4.9-5.4c-0.2-0.4,1.6-0.1,1.6,1.5s-2.1,3.9-1.4,3.9
		c0.7,0,4-3.6,5.9-6.6c0.3-0.5,1-0.3,0.5,0.5c-0.5,0.7-5.1,7.2-7.1,7.2c-0.9,0-1.8-1.4-1.8-1.9c0-0.5,0.4-1.3,0.4-1.3S23,23,22.2,23
		c-0.8,0-2.1-1-2.1-2.6c0-2.6,5.3-8.4,7.8-8.4C29.3,12,30.1,14.4,29.6,14.4z"/>
	<path class="st0" d="M43.7,15.8c-0.5,0.7-5.2,7.2-7.3,7.2c-1.7,0-2-1.4-2-2.6c0-1.3,1.8-3.5,2.8-5.6c-0.6,0.3-1.7,0.6-2.9,0.6
		c-0.6,0-1.7-0.4-1.7-2.8c0-3.4,2.6-5.9,4.1-5.9c0.8,0,1.5,0.5,1.5,1.4c0,1.8-3.1,5.9-3.1,5.9s2.9-1.5,3.4-1.8
		c0.3-0.2,0.6-0.5,0.9-0.2c0.4,0.3,2.1,1.6,1.1,2.7c0,0-0.1,0.1-0.1,0.2c-1.1,1.5-5.2,6.9-3.3,6.9v0c0.7,0,4.1-3.7,6.1-6.6
		C43.5,14.8,44.2,15.1,43.7,15.8z M34.6,13.8c1.3-2.3,2.6-4.4,1.9-4.4s-2.3,2.2-2.3,3.2C34.2,13.3,34.6,13.8,34.6,13.8z"/>
	<path class="st0" d="M51.6,15.8C51.1,16.5,45.8,23,43,23c0,0-2.1,0-2.1-2.7c0-4,5.3-8.3,6.7-8.3c0.6,0,1.5,0.4,1.5,2.5
		s-4.7,5.7-5.8,5.7c0,0-0.8,1.5,0.3,1.5c1.5,0,5.4-3.4,7.4-6.4C51.4,14.9,52.1,15.1,51.6,15.8z M43.7,19.4c3-1.8,4.4-4.6,3.7-4.6
		C46.7,14.8,43.7,19.4,43.7,19.4z"/>
	<path class="st0" d="M75.8,6.3c0,6.2-7.9,17.4-14.6,17.4c-2.7,0-6-1.6-6-7.3c0-5.7,5.3-11.9,7.5-11.9c1.7,0,1.9,0.8,1.9,0.8
		s3-3.9,7.1-3.9C74,1.5,75.8,3,75.8,6.3z M71.3,13.6c0,0-1.2,0.4-2.3,0.4c-4.5,0-5-5.7-5-5.7s-5.7,4.4-5.7,9.2c0,3.1,1.1,5.1,3,5.1
		C67.2,22.5,71.3,13.6,71.3,13.6z M71.7,4.8c-3.4,0-5.3,2.8-5.3,4.2c0,2,1.1,3.7,2.8,3.7c1.7,0,3-0.8,3-0.8S75.6,4.8,71.7,4.8z"/>
	<path class="st0" d="M84.3,15.8C83.8,16.5,79.1,23,77,23c-1.7,0-2-1.4-2-2.6c0-1.3,1.8-3.5,2.8-5.6c-0.6,0.3-1.7,0.6-2.9,0.6
		c-0.6,0-1.7-0.4-1.7-2.8c0-3.4,2.6-5.9,4.1-5.9c0.8,0,1.5,0.5,1.5,1.4c0,1.8-3.1,5.9-3.1,5.9s2.9-1.5,3.4-1.8
		c0.3-0.2,0.6-0.5,0.9-0.2c0.4,0.3,2.1,1.6,1.1,2.7c0,0-0.1,0.1-0.1,0.2c-1.1,1.5-5.2,6.9-3.3,6.9v0c0.7,0,4.1-3.7,6.1-6.6
		C84.1,14.8,84.8,15.1,84.3,15.8z M75.2,13.8c1.3-2.3,2.6-4.4,1.9-4.4s-2.3,2.2-2.3,3.2C74.8,13.3,75.2,13.8,75.2,13.8z"/>
	<path class="st0" d="M90.8,15.7c-0.5,0.7-5.3,7.3-7.3,7.3c-1.7,0-2.1-1.8-2-3c0.1-1.6,2.4-4.3,3.4-6.9c0.2-0.4,0-1,0.6-1
		s1.5,0.9,1.4,2.6s-5,7.2-2.7,7.2c0.7,0,4.1-3.6,6.1-6.6C90.6,14.8,91.2,15,90.8,15.7z M86.8,8.9c0.1-1.6,1.1-2.1,1.7-2.1
		c0.5,0,2,0.7,2,1.4c-0.1,0.7-0.7,0.9-1.4,2c-0.7,1.2-0.6,1.2-1,1.2C87.5,11.5,86.6,10.5,86.8,8.9z"/>
	<path class="st0" d="M101.7,15.8c-0.4,0.7-5.1,6.4-7.3,7.2l0,0.1l-0.5,0.8c-2.4,3.9-5.7,7.7-9.2,7.7c-0.9,0-1.9-0.7-2-2.2
		c-0.1-1.5,7.9-5,7.9-5c0.9-1,3-5,3-5S90.7,23,89.9,23c-0.8,0-2.2-1-2.3-2.6c-0.2-2.5,4.6-8.4,7.1-8.4c1.3,0,2.3,2.3,1.8,2.3
		c-2.6,0-7.8,7.5-6.2,7.5c0.5,0,4.7-5,4.4-5.5c-0.3-0.4,1.6,0,1.7,1.6c0.1,0.7-0.4,2.1-1.3,3.7c1.3-0.8,4.4-3.8,6.1-6.3
		C101.5,14.8,102.2,15.1,101.7,15.8z M89.8,25.3c0,0-6.6,3.3-6.5,4.1c0,0.4,0.4,0.6,0.8,0.6C86.2,30.1,89.8,25.3,89.8,25.3z"/>
	<path class="st0" d="M108.3,15.7c-0.5,0.7-5.3,7.3-7.3,7.3c-1.7,0-2.1-1.8-2-3c0.1-1.6,2.4-4.3,3.4-6.9c0.2-0.4,0-1,0.6-1
		s1.5,0.9,1.4,2.6s-5,7.2-2.7,7.2c0.7,0,4.1-3.6,6.1-6.6C108.1,14.8,108.8,15,108.3,15.7z M104.3,8.9c0.1-1.6,1.1-2.1,1.7-2.1
		c0.5,0,2,0.7,2,1.4c-0.1,0.7-0.7,0.9-1.4,2c-0.7,1.2-0.6,1.2-1,1.2C105,11.5,104.2,10.5,104.3,8.9z"/>
	<path class="st0" d="M110.1,20.2c0-1.8,3.3-6.2,3.3-6.2c-0.7,0-7,7.3-7,8.4c0,1.6-1.5,0-1.5-1.7c0-1.8,4.4-6.4,4.4-8.6
		c0-0.8,1.6,0.1,1.6,2.3c0,1.1-0.7,1.8-0.7,1.8s4-4.1,4.8-4.1c0.8,0,1.2,1.1,1.2,2.2s-5.1,7.7-4.1,7.7c1.3,0,4.5-3.8,6.5-6.7
		c0.3-0.5,1-0.3,0.5,0.5c-0.5,0.7-5.1,7.4-7.3,7.4C110.7,23,110.1,21.9,110.1,20.2z"/>
</g>
</svg>
